<?xml version="1.0" encoding="utf-8"?>
<!-- Generator: Adobe Illustrator 18.0.0, SVG Export Plug-In . SVG Version: 6.00 Build 0)  -->
<!DOCTYPE svg PUBLIC "-//W3C//DTD SVG 1.1//EN" "http://www.w3.org/Graphics/SVG/1.1/DTD/svg11.dtd">
<svg version="1.1" id="Layer_1" xmlns="http://www.w3.org/2000/svg" xmlns:xlink="http://www.w3.org/1999/xlink" x="0px" y="0px"
	 width="841.9px" height="595.3px" viewBox="0 0 841.9 595.3" enable-background="new 0 0 841.9 595.3" xml:space="preserve">
<g>
	<rect fill="#2BB673" width="841.9" height="595.3"/>
	<g>
		<g>
			<ellipse fill="#2C8658" cx="136.1" cy="228" rx="68.7" ry="7.6"/>
			<g>
				<circle fill="#FFE56B" cx="131.2" cy="170.2" r="60.3"/>
				<circle fill="#FED324" cx="122" cy="169.8" r="60.3"/>
				<circle fill="#D1A42A" cx="122" cy="169.8" r="44.1"/>
				<path fill="#B79123" d="M81.2,169.8c0-23.8,18.9-43.2,42.4-44c-0.5,0-1.1,0-1.6,0c-24.3,0-44.1,19.7-44.1,44.1
					c0,24.3,19.7,44.1,44.1,44.1c0.5,0,1.1,0,1.6,0C100.1,212.9,81.2,193.6,81.2,169.8z"/>
				<path fill="#B79123" d="M150.4,155.3h-6.2c-0.2-0.5-0.4-1-0.6-1.6c-0.9-2-2.2-3.8-3.9-5.2c-1.7-1.4-3.9-2.6-6.4-3.4
					c-2.5-0.8-5.5-1.2-8.8-1.2h-19.1v11.3H100v3.5h5.5v3.3H100v3.5h5.5v30h11.3v-18.5h7.8c3.3,0,6.2-0.4,8.8-1.2
					c2.5-0.8,4.7-1.9,6.4-3.4c1.7-1.5,3-3.2,3.9-5.3c0.2-0.5,0.4-1.1,0.6-1.6h6.2v-3.5h-5.5c0-0.5,0.1-1.1,0.1-1.6
					c0-0.6,0-1.1-0.1-1.7h5.5V155.3z M116.8,152.2h6.9c3.2,0,5.7,0.7,7.3,2c0.4,0.3,0.7,0.7,1,1h-15.2V152.2z M123.7,168.8h-6.9
					v-3.2H132C130.4,167.7,127.7,168.8,123.7,168.8z M133.4,160.5c0,0.6,0,1.1-0.1,1.6h-16.5v-3.3h16.5
					C133.3,159.3,133.4,159.9,133.4,160.5z"/>
				<path fill="#FFE56B" d="M147.2,155.3H141c-0.2-0.5-0.4-1-0.6-1.6c-0.9-2-2.2-3.8-3.9-5.2c-1.7-1.4-3.9-2.6-6.4-3.4
					c-2.5-0.8-5.5-1.2-8.8-1.2h-19.1v11.3h-5.5v3.5h5.5v3.3h-5.5v3.5h5.5v30h11.3v-18.5h7.8c3.3,0,6.2-0.4,8.8-1.2
					c2.5-0.8,4.7-1.9,6.4-3.4c1.7-1.5,3-3.2,3.9-5.3c0.2-0.5,0.4-1.1,0.6-1.6h6.2v-3.5h-5.5c0-0.5,0.1-1.1,0.1-1.6
					c0-0.6,0-1.1-0.1-1.7h5.5V155.3z M113.6,152.2h6.9c3.2,0,5.7,0.7,7.3,2c0.4,0.3,0.7,0.7,1,1h-15.2V152.2z M120.5,168.8h-6.9
					v-3.2h15.2C127.3,167.7,124.5,168.8,120.5,168.8z M130.2,160.5c0,0.6,0,1.1-0.1,1.6h-16.5v-3.3h16.5
					C130.2,159.3,130.2,159.9,130.2,160.5z"/>
				<path fill="#FED324" d="M142.8,155.3h-5.7c-0.2-0.5-0.3-1-0.5-1.6c-0.8-2-2-3.8-3.6-5.2c-1.6-1.4-3.5-2.6-5.8-3.4
					c-2.3-0.8-5-1.2-8-1.2h-17.4v11.3h-5v3.5h5v3.3h-5v3.5h5v30h10.3v-18.5h7.1c3,0,5.7-0.4,8-1.2c2.3-0.8,4.3-1.9,5.8-3.4
					c1.6-1.5,2.8-3.2,3.6-5.3c0.2-0.5,0.4-1.1,0.5-1.6h5.6v-3.5h-5c0-0.5,0.1-1.1,0.1-1.6c0-0.6,0-1.1-0.1-1.7h5V155.3z
					 M112.1,152.2h6.3c3,0,5.2,0.7,6.6,2c0.3,0.3,0.6,0.7,0.9,1h-13.8V152.2z M118.4,168.8h-6.3v-3.2H126
					C124.6,167.7,122.1,168.8,118.4,168.8z M127.2,160.5c0,0.6,0,1.1-0.1,1.6h-15.1v-3.3h15.1C127.2,159.3,127.2,159.9,127.2,160.5z
					"/>
				<g>
					<g>
						<path fill="#FFE56B" d="M77,190.6l-4.9,4.9c-0.7,0.7-0.8,1.7-0.4,2.5c2.3,4,5,7.7,8.1,11.1c0.8,0.9,2.2,0.9,3.1,0.1l4.7-4.7
							c0.8-0.8,0.8-2.1,0.1-2.9c-2.9-3.1-5.3-6.6-7.3-10.4C79.7,189.9,78,189.6,77,190.6z"/>
						<path fill="#FFE56B" d="M156.8,135.3l4.7-4.7c0.9-0.9,0.8-2.2-0.1-3.1c-3.3-3.1-7.1-5.8-11.1-8.1c-0.8-0.5-1.9-0.3-2.5,0.4
							l-4.9,4.9c-1,1-0.7,2.7,0.5,3.4c3.8,2,7.3,4.4,10.4,7.3C154.7,136.1,156,136.1,156.8,135.3z"/>
						<path fill="#FFE56B" d="M166.7,137.1l-4.8,4.8c-0.7,0.7-0.8,1.8-0.3,2.7c0.8,1.2,1.5,2.5,2.2,3.8c0.7,1.3,2.4,1.6,3.4,0.5
							l4.9-4.9c0.7-0.7,0.8-1.7,0.4-2.5c-0.8-1.4-1.6-2.7-2.5-4C169.2,136.3,167.6,136.2,166.7,137.1z"/>
						<path fill="#FFE56B" d="M100.6,211.5c-1.3-0.7-2.5-1.4-3.8-2.2c-0.8-0.5-2-0.4-2.7,0.3l-4.8,4.8c-0.9,0.9-0.8,2.5,0.3,3.3
							c1.3,0.9,2.6,1.7,4,2.5c0.8,0.5,1.8,0.3,2.5-0.4l4.9-4.9C102.2,213.8,101.9,212.1,100.6,211.5z"/>
					</g>
				</g>
			</g>
		</g>
		<g>
			<ellipse fill="#2C8658" cx="327.9" cy="228" rx="68.7" ry="7.6"/>
			<g>
				<circle fill="#FFE56B" cx="323" cy="170.2" r="60.3"/>
				<circle fill="#FED324" cx="313.8" cy="169.8" r="60.3"/>
				<circle fill="#D1A42A" cx="313.8" cy="169.8" r="44.1"/>
				<path fill="#B79123" d="M273,169.8c0-23.8,18.9-43.2,42.4-44c-0.5,0-1.1,0-1.6,0c-24.3,0-44.1,19.7-44.1,44.1
					c0,24.3,19.7,44.1,44.1,44.1c0.5,0,1.1,0,1.6,0C291.8,212.9,273,193.6,273,169.8z"/>
				<g>
					<g>
						<path fill="#FFE56B" d="M268.7,190.6l-4.9,4.9c-0.7,0.7-0.8,1.7-0.4,2.5c2.3,4,5,7.7,8.1,11.1c0.8,0.9,2.2,0.9,3.1,0.1
							l4.7-4.7c0.8-0.8,0.8-2.1,0.1-2.9c-2.9-3.1-5.3-6.6-7.3-10.4C271.4,189.9,269.7,189.6,268.7,190.6z"/>
						<path fill="#FFE56B" d="M348.5,135.3l4.7-4.7c0.9-0.9,0.8-2.2-0.1-3.1c-3.3-3.1-7.1-5.8-11.1-8.1c-0.8-0.5-1.9-0.3-2.5,0.4
							l-4.9,4.9c-1,1-0.7,2.7,0.5,3.4c3.8,2,7.3,4.4,10.4,7.3C346.4,136.1,347.7,136.1,348.5,135.3z"/>
						<path fill="#FFE56B" d="M358.4,137.1l-4.8,4.8c-0.7,0.7-0.8,1.8-0.3,2.7c0.8,1.2,1.5,2.5,2.2,3.8c0.7,1.3,2.4,1.6,3.4,0.5
							l4.9-4.9c0.7-0.7,0.8-1.7,0.4-2.5c-0.8-1.4-1.6-2.7-2.5-4C360.9,136.3,359.4,136.2,358.4,137.1z"/>
						<path fill="#FFE56B" d="M292.4,211.5c-1.3-0.7-2.5-1.4-3.8-2.2c-0.8-0.5-2-0.4-2.7,0.3l-4.8,4.8c-0.9,0.9-0.8,2.5,0.3,3.3
							c1.3,0.9,2.6,1.7,4,2.5c0.8,0.5,1.8,0.3,2.5-0.4l4.9-4.9C293.9,213.8,293.6,212.1,292.4,211.5z"/>
					</g>
				</g>
				<path fill="#B79123" d="M312.1,192c-2-0.2-4.1-0.6-6-1.1c-2-0.5-3.7-1.1-5.2-1.9l2.4-7.1c2.2,0.7,4.2,1.3,6.2,1.7
					c2,0.5,4.1,0.7,6.2,0.7c2.1,0,3.7-0.4,4.8-1.3c1.1-0.9,1.7-2.1,1.7-3.6c0-0.8-0.2-1.5-0.6-2.1c-0.4-0.6-0.9-1.2-1.6-1.7
					c-0.7-0.5-1.5-1-2.5-1.4c-1-0.4-2.1-0.8-3.3-1.2c-2-0.7-3.9-1.4-5.5-2.3c-1.6-0.8-3-1.8-4.2-2.9c-1.2-1.1-2-2.3-2.7-3.7
					c-0.6-1.4-0.9-2.9-0.9-4.6c0-1.6,0.3-3.1,0.8-4.5c0.5-1.4,1.3-2.6,2.2-3.7c1-1.1,2.1-2,3.5-2.7c1.4-0.8,2.9-1.3,4.7-1.7v-7.5
					h8.9v7.3c1,0.2,2,0.3,2.9,0.6c1,0.2,1.9,0.5,2.7,0.8c0.9,0.3,1.7,0.6,2.4,0.8c0.7,0.3,1.4,0.6,1.9,0.9l-1.9,7.1
					c-1.1-0.4-2.1-0.7-3.1-1c-1-0.3-1.9-0.6-2.9-0.8c-0.9-0.2-1.9-0.4-2.8-0.5c-0.9-0.1-1.9-0.2-2.9-0.2c-2.2,0-3.8,0.5-4.9,1.4
					c-1.1,0.9-1.6,2.1-1.6,3.5c0,0.7,0.1,1.3,0.4,1.9c0.3,0.6,0.7,1.2,1.2,1.7c0.6,0.5,1.3,1,2.2,1.5c0.9,0.4,2,0.9,3.3,1.3
					c2.5,0.8,4.6,1.6,6.4,2.5c1.8,0.9,3.2,1.9,4.4,3c1.1,1.1,2,2.3,2.5,3.6c0.5,1.3,0.8,2.8,0.8,4.5c0,1.6-0.3,3.1-0.8,4.5
					s-1.3,2.6-2.3,3.7c-1,1.1-2.2,2-3.6,2.7c-1.4,0.7-3,1.3-4.7,1.6v8.3h-8.9V192z"/>
				<path fill="#FFE56B" d="M328.7,174.7c-0.5-1.3-1.4-2.6-2.5-3.6c-1.1-1.1-2.6-2.1-4.4-3c-1.8-0.9-3.9-1.7-6.4-2.5
					c-1.3-0.4-2.4-0.8-3.3-1.3c-0.9-0.4-1.6-0.9-2.2-1.5c-0.6-0.5-1-1.1-1.2-1.7c-0.3-0.6-0.4-1.2-0.4-1.9c0-1.4,0.5-2.6,1.6-3.5
					c0.8-0.7,2-1.1,3.6-1.3c0.4,0,0.8,0.1,1.2,0.1c0.9,0.1,1.9,0.3,2.8,0.5c0.9,0.2,1.9,0.5,2.9,0.8c1,0.3,2,0.7,3.1,1
					c0,0,1.8,0,2.9,0l1.9-7.1c-0.5-0.3-1.2-0.6-1.9-0.9c-0.7-0.3-1.5-0.6-2.4-0.8c-0.9-0.3-1.8-0.5-2.7-0.8c-1-0.2-1.9-0.4-2.9-0.6
					v-7.3h-2.9h-6h-2.9v7.5c-1.7,0.4-3.3,0.9-4.7,1.7c-1.4,0.8-2.6,1.7-3.5,2.7c-1,1.1-1.7,2.3-2.2,3.7c-0.5,1.4-0.8,2.9-0.8,4.5
					c0,1.7,0.3,3.3,0.9,4.6c0.6,1.4,1.5,2.6,2.7,3.7c1.2,1.1,2.5,2,4.2,2.9c1.6,0.8,3.5,1.6,5.5,2.3c1.2,0.4,2.3,0.8,3.3,1.2
					c1,0.4,1.8,0.9,2.5,1.4c0.7,0.5,1.2,1.1,1.6,1.7c0.4,0.6,0.6,1.3,0.6,2.1c0,1.6-0.6,2.8-1.7,3.6c-0.9,0.7-2.1,1.1-3.7,1.2
					c-1.5-0.1-2.9-0.3-4.4-0.6c-2-0.5-4.1-1-6.2-1.7c0,0-1.8,0-2.9,0l-2.4,7.1c1.5,0.7,3.2,1.4,5.2,1.9c2,0.5,4,0.9,6,1.1v8.1h2.9
					h5.9h2.9v-8.3c1.7-0.3,3.3-0.9,4.7-1.6c1.4-0.7,2.6-1.6,3.6-2.7c1-1.1,1.7-2.3,2.3-3.7c0.5-1.4,0.8-2.9,0.8-4.5
					C329.5,177.6,329.2,176.1,328.7,174.7z"/>
				<path fill="#FED324" d="M306.4,192c-2-0.2-4.1-0.6-6-1.1c-2-0.5-3.7-1.1-5.2-1.9l2.4-7.1c2.2,0.7,4.2,1.3,6.2,1.7
					c2,0.5,4.1,0.7,6.2,0.7c2.1,0,3.7-0.4,4.8-1.3c1.1-0.9,1.7-2.1,1.7-3.6c0-0.8-0.2-1.5-0.6-2.1c-0.4-0.6-0.9-1.2-1.6-1.7
					c-0.7-0.5-1.5-1-2.5-1.4c-1-0.4-2.1-0.8-3.3-1.2c-2-0.7-3.9-1.4-5.5-2.3c-1.6-0.8-3-1.8-4.2-2.9c-1.2-1.1-2-2.3-2.7-3.7
					c-0.6-1.4-0.9-2.9-0.9-4.6c0-1.6,0.3-3.1,0.8-4.5c0.5-1.4,1.3-2.6,2.2-3.7c1-1.1,2.1-2,3.5-2.7c1.4-0.8,2.9-1.3,4.7-1.7v-7.5
					h8.9v7.3c1,0.2,2,0.3,2.9,0.6c1,0.2,1.9,0.5,2.7,0.8c0.9,0.3,1.7,0.6,2.4,0.8c0.7,0.3,1.4,0.6,1.9,0.9l-1.9,7.1
					c-1.1-0.4-2.1-0.7-3.1-1c-1-0.3-1.9-0.6-2.9-0.8c-0.9-0.2-1.9-0.4-2.8-0.5c-0.9-0.1-1.9-0.2-2.9-0.2c-2.2,0-3.8,0.5-4.9,1.4
					c-1.1,0.9-1.6,2.1-1.6,3.5c0,0.7,0.1,1.3,0.4,1.9c0.3,0.6,0.7,1.2,1.2,1.7c0.6,0.5,1.3,1,2.2,1.5c0.9,0.4,2,0.9,3.3,1.3
					c2.5,0.8,4.6,1.6,6.4,2.5c1.8,0.9,3.2,1.9,4.4,3c1.1,1.1,2,2.3,2.5,3.6c0.5,1.3,0.8,2.8,0.8,4.5c0,1.6-0.3,3.1-0.8,4.5
					s-1.3,2.6-2.3,3.7c-1,1.1-2.2,2-3.6,2.7c-1.4,0.7-3,1.3-4.7,1.6v8.3h-8.9V192z"/>
			</g>
		</g>
		<g>
			<ellipse fill="#2C8658" cx="519.6" cy="228" rx="68.7" ry="7.6"/>
			<g>
				<circle fill="#FFE56B" cx="514.8" cy="170.2" r="60.3"/>
				<circle fill="#FED324" cx="505.5" cy="169.8" r="60.3"/>
				<circle fill="#D1A42A" cx="505.5" cy="169.8" r="44.1"/>
				<path fill="#B79123" d="M464.7,169.8c0-23.8,18.9-43.2,42.4-44c-0.5,0-1.1,0-1.6,0c-24.3,0-44.1,19.7-44.1,44.1
					c0,24.3,19.7,44.1,44.1,44.1c0.5,0,1.1,0,1.6,0C483.6,212.9,464.7,193.6,464.7,169.8z"/>
				<g>
					<g>
						<path fill="#FFE56B" d="M460.5,190.6l-4.9,4.9c-0.7,0.7-0.8,1.7-0.4,2.5c2.3,4,5,7.7,8.1,11.1c0.8,0.9,2.2,0.9,3.1,0.1
							l4.7-4.7c0.8-0.8,0.8-2.1,0.1-2.9c-2.9-3.1-5.3-6.6-7.3-10.4C463.2,189.9,461.5,189.6,460.5,190.6z"/>
						<path fill="#FFE56B" d="M540.3,135.3l4.7-4.7c0.9-0.9,0.8-2.2-0.1-3.1c-3.3-3.1-7.1-5.8-11.1-8.1c-0.8-0.5-1.9-0.3-2.5,0.4
							l-4.9,4.9c-1,1-0.7,2.7,0.5,3.4c3.8,2,7.3,4.4,10.4,7.3C538.2,136.1,539.5,136.1,540.3,135.3z"/>
						<path fill="#FFE56B" d="M550.2,137.1l-4.8,4.8c-0.7,0.7-0.8,1.8-0.3,2.7c0.8,1.2,1.5,2.5,2.2,3.8c0.7,1.3,2.4,1.6,3.4,0.5
							l4.9-4.9c0.7-0.7,0.8-1.7,0.4-2.5c-0.8-1.4-1.6-2.7-2.5-4C552.7,136.3,551.1,136.2,550.2,137.1z"/>
						<path fill="#FFE56B" d="M484.1,211.5c-1.3-0.7-2.5-1.4-3.8-2.2c-0.8-0.5-2-0.4-2.7,0.3l-4.8,4.8c-0.9,0.9-0.8,2.5,0.3,3.3
							c1.3,0.9,2.6,1.7,4,2.5c0.8,0.5,1.8,0.3,2.5-0.4l4.9-4.9C485.7,213.8,485.4,212.1,484.1,211.5z"/>
					</g>
				</g>
				<g>
					<path fill="#B79123" d="M491.8,166.5h6.3v-7.8c0-2.6,0.4-4.9,1.1-6.7c0.8-1.8,1.9-3.3,3.4-4.5c1.5-1.2,3.4-2,5.7-2.5
						c2.3-0.5,4.9-0.8,7.9-0.8c1.6,0,3.2,0.1,4.9,0.3c1.7,0.2,3.1,0.5,4.3,0.8l0,8.4c-0.5-0.1-1.1-0.2-1.8-0.3
						c-0.7-0.1-1.4-0.2-2.2-0.3c-0.8-0.1-1.5-0.1-2.3-0.2c-0.8-0.1-1.6-0.1-2.3-0.1c-1.4,0-2.6,0.1-3.6,0.4c-1,0.3-1.7,0.7-2.3,1.3
						c-0.6,0.6-1,1.4-1.2,2.3c-0.2,0.9-0.4,2.1-0.4,3.4v6.2h11.9v7.9h-11.9v4.4c0,2.1-0.4,3.9-1.2,5.3c-0.8,1.4-2.1,2.7-3.7,3.7
						h24.3v8.3h-38.3v-8.3h0.3l-0.2-0.1c1.3,0,2.4-0.3,3.4-0.8c1-0.5,1.7-1.2,2.4-2.1c0.6-0.9,1.1-1.9,1.4-3.1
						c0.3-1.2,0.5-2.4,0.5-3.7v-3.8h-7.4L491.8,166.5z"/>
					<path fill="#FFE56B" d="M522.6,187.9H502c1.7-1.1,2.9-2.3,3.7-3.7c0.8-1.4,1.2-3.2,1.2-5.3v-4.4h8.1h3.8v-7.9H515h-8.1v-6.2
						c0-1.3,0.1-2.5,0.4-3.4c0.2-0.9,0.7-1.7,1.2-2.3c0.6-0.6,1.4-1,2.3-1.3c0.6-0.2,1.2-0.3,2-0.3c0,0,0.1,0,0.1,0
						c0.8,0.1,1.6,0.1,2.3,0.2c0.8,0.1,1.5,0.2,2.2,0.3c0.7,0.1,1.3,0.2,1.8,0.3c0,0,3.3-0.1,3.8,0l0-8.4c-1.2-0.3-2.6-0.6-4.3-0.8
						c-1.7-0.2-3.3-0.3-4.9-0.3c-0.8,0-3.3,0-3.8,0c-3,0-5.7,0.3-7.9,0.8c-2.3,0.5-4.2,1.4-5.7,2.5c-1.5,1.2-2.7,2.7-3.4,4.5
						c-0.8,1.8-1.1,4.1-1.1,6.7v7.8h-2.6h-3.8l-1.1,7.9h3.8h3.7v3.8c0,1.3-0.2,2.5-0.5,3.7c-0.3,1.2-0.8,2.2-1.4,3.1
						c-0.6,0.9-1.4,1.6-2.4,2.1c-1,0.5-2.1,0.8-3.4,0.8l0.2,0.1h-0.3v8.3h3.8h34.6h3.8v-8.3H522.6z"/>
					<path fill="#FED324" d="M485.6,166.5h6.3v-7.8c0-2.6,0.4-4.9,1.1-6.7c0.8-1.8,1.9-3.3,3.4-4.5c1.5-1.2,3.4-2,5.7-2.5
						c2.3-0.5,4.9-0.8,7.9-0.8c1.6,0,3.2,0.1,4.9,0.3c1.7,0.2,3.1,0.5,4.3,0.8l0,8.4c-0.5-0.1-1.1-0.2-1.8-0.3
						c-0.7-0.1-1.4-0.2-2.2-0.3c-0.8-0.1-1.5-0.1-2.3-0.2c-0.8-0.1-1.6-0.1-2.3-0.1c-1.4,0-2.6,0.1-3.6,0.4c-1,0.3-1.7,0.7-2.3,1.3
						c-0.6,0.6-1,1.4-1.2,2.3c-0.2,0.9-0.4,2.1-0.4,3.4v6.2H515v7.9h-11.9v4.4c0,2.1-0.4,3.9-1.2,5.3c-0.8,1.4-2.1,2.7-3.7,3.7h24.3
						v8.3h-38.3v-8.3h0.3l-0.2-0.1c1.3,0,2.4-0.3,3.4-0.8c1-0.5,1.7-1.2,2.4-2.1c0.6-0.9,1.1-1.9,1.4-3.1c0.3-1.2,0.5-2.4,0.5-3.7
						v-3.8h-7.4L485.6,166.5z"/>
				</g>
			</g>
		</g>
		<g>
			<ellipse fill="#2C8658" cx="711.4" cy="228" rx="68.7" ry="7.6"/>
			<g>
				<circle fill="#FFE56B" cx="706.5" cy="170.2" r="60.3"/>
				<circle fill="#FED324" cx="697.3" cy="169.8" r="60.3"/>
				<circle fill="#D1A42A" cx="697.3" cy="169.8" r="44.1"/>
				<path fill="#B79123" d="M656.5,169.8c0-23.8,18.9-43.2,42.4-44c-0.5,0-1.1,0-1.6,0c-24.3,0-44.1,19.7-44.1,44.1
					c0,24.3,19.7,44.1,44.1,44.1c0.5,0,1.1,0,1.6,0C675.3,212.9,656.5,193.6,656.5,169.8z"/>
				<g>
					<g>
						<path fill="#FFE56B" d="M652.2,190.6l-4.9,4.9c-0.7,0.7-0.8,1.7-0.4,2.5c2.3,4,5,7.7,8.1,11.1c0.8,0.9,2.2,0.9,3.1,0.1
							l4.7-4.7c0.8-0.8,0.8-2.1,0.1-2.9c-2.9-3.1-5.3-6.6-7.3-10.4C654.9,189.9,653.2,189.6,652.2,190.6z"/>
						<path fill="#FFE56B" d="M732,135.3l4.7-4.7c0.9-0.9,0.8-2.2-0.1-3.1c-3.3-3.1-7.1-5.8-11.1-8.1c-0.8-0.5-1.9-0.3-2.5,0.4
							l-4.9,4.9c-1,1-0.7,2.7,0.5,3.4c3.8,2,7.3,4.4,10.4,7.3C730,136.1,731.2,136.1,732,135.3z"/>
						<path fill="#FFE56B" d="M742,137.1l-4.8,4.8c-0.7,0.7-0.8,1.8-0.3,2.7c0.8,1.2,1.5,2.5,2.2,3.8c0.7,1.3,2.4,1.6,3.4,0.5
							l4.9-4.9c0.7-0.7,0.8-1.7,0.4-2.5c-0.8-1.4-1.6-2.7-2.5-4C744.5,136.3,742.9,136.2,742,137.1z"/>
						<path fill="#FFE56B" d="M675.9,211.5c-1.3-0.7-2.5-1.4-3.8-2.2c-0.8-0.5-2-0.4-2.7,0.3l-4.8,4.8c-0.9,0.9-0.8,2.5,0.3,3.3
							c1.3,0.9,2.6,1.7,4,2.5c0.8,0.5,1.8,0.3,2.5-0.4l4.9-4.9C677.5,213.8,677.2,212.1,675.9,211.5z"/>
					</g>
				</g>
				<g>
					<path fill="#B79123" d="M699.6,170l11.2-23.9h12l-13.7,28.4h9.1v5.8h-11.9l-0.8,1.7v3.6h12.7v5.8h-12.7v8.8h-11.9v-8.8h-11.7
						v-5.8h11.7v-3.9l-0.7-1.4h-11.1v-5.8h8.2l-13.8-28.4h12.2L699.6,170z"/>
					<path fill="#FFE56B" d="M697.3,170l11.2-23.9h12l-13.7,28.4h9.1v5.8H704l-0.8,1.7v3.6h12.7v5.8h-12.7v8.8h-11.9v-8.8h-11.7
						v-5.8h11.7v-3.9l-0.7-1.4h-11.1v-5.8h8.2l-13.8-28.4h12.2L697.3,170z"/>
					<path fill="#FED324" d="M693.8,170l11.2-23.9h12l-13.7,28.4h9.1v5.8h-11.9l-0.8,1.7v3.6h12.7v5.8h-12.7v8.8h-11.9v-8.8h-11.7
						v-5.8h11.7v-3.9l-0.7-1.4h-11.1v-5.8h8.2l-13.8-28.4h12.2L693.8,170z"/>
				</g>
			</g>
		</g>
		<g>
			<ellipse fill="#2C8658" cx="519.6" cy="478.2" rx="68.7" ry="7.6"/>
			<g>
				<circle fill="#FFE56B" cx="514.8" cy="420.3" r="60.3"/>
				<circle fill="#FED324" cx="505.5" cy="419.9" r="60.3"/>
				<circle fill="#D1A42A" cx="505.5" cy="419.9" r="44.1"/>
				<path fill="#B79123" d="M464.7,419.9c0-23.8,18.9-43.2,42.4-44c-0.5,0-1.1,0-1.6,0c-24.3,0-44.1,19.7-44.1,44.1
					c0,24.3,19.7,44.1,44.1,44.1c0.5,0,1.1,0,1.6,0C483.6,463,464.7,443.7,464.7,419.9z"/>
				<g>
					<g>
						<path fill="#FFE56B" d="M460.5,440.8l-4.9,4.9c-0.7,0.7-0.8,1.7-0.4,2.5c2.3,4,5,7.7,8.1,11.1c0.8,0.9,2.2,0.9,3.1,0.1
							l4.7-4.7c0.8-0.8,0.8-2.1,0.1-2.9c-2.9-3.1-5.3-6.6-7.3-10.4C463.2,440,461.5,439.7,460.5,440.8z"/>
						<path fill="#FFE56B" d="M540.3,385.4l4.7-4.7c0.9-0.9,0.8-2.2-0.1-3.1c-3.3-3.1-7.1-5.8-11.1-8.1c-0.8-0.5-1.9-0.3-2.5,0.4
							l-4.9,4.9c-1,1-0.7,2.7,0.5,3.4c3.8,2,7.3,4.4,10.4,7.3C538.2,386.2,539.5,386.2,540.3,385.4z"/>
						<path fill="#FFE56B" d="M550.2,387.2l-4.8,4.8c-0.7,0.7-0.8,1.8-0.3,2.7c0.8,1.2,1.5,2.5,2.2,3.8c0.7,1.3,2.4,1.6,3.4,0.5
							l4.9-4.9c0.7-0.7,0.8-1.7,0.4-2.5c-0.8-1.4-1.6-2.7-2.5-4C552.7,386.4,551.1,386.3,550.2,387.2z"/>
						<path fill="#FFE56B" d="M484.1,461.6c-1.3-0.7-2.5-1.4-3.8-2.2c-0.8-0.5-2-0.4-2.7,0.3l-4.8,4.8c-0.9,0.9-0.8,2.5,0.3,3.3
							c1.3,0.9,2.6,1.7,4,2.5c0.8,0.5,1.8,0.3,2.5-0.4l4.9-4.9C485.7,463.9,485.4,462.2,484.1,461.6z"/>
					</g>
				</g>
				<g>
					<g>
						<g>
							<path fill="#B79123" d="M481,396.4h13.3c2.3,0,4.4,0.3,6.2,0.8c1.8,0.5,3.3,1.3,4.5,2.3c1.2,1,2.1,2.2,2.8,3.6
								c0.6,1.4,0.9,3,0.9,4.7c0,1.1-0.2,2.1-0.5,3c-0.3,0.9-0.7,1.8-1.2,2.7c-0.5,0.8-1.1,1.6-1.8,2.3c-0.7,0.7-1.4,1.3-2.2,1.9
								l7.8,15.8h-8.5l-6.8-14h-6.3v14H481V396.4z M489.1,402.3v11.2h9.1c0.3-0.3,0.5-0.6,0.8-1c0.3-0.4,0.5-0.8,0.7-1.2
								c0.2-0.5,0.4-1,0.5-1.5s0.2-1.2,0.2-1.9c0-2-0.5-3.4-1.6-4.2c-1-0.9-2.6-1.3-4.7-1.3H489.1z"/>
							<path fill="#B79123" d="M510.8,406.2h7.2l0.5,2.4c0.5-0.5,1-0.9,1.6-1.2c0.5-0.4,1.1-0.7,1.8-0.9c0.7-0.2,1.4-0.4,2.2-0.6
								c0.8-0.1,1.7-0.2,2.7-0.2c1.7,0,3.3,0.3,4.7,1c1.4,0.7,2.6,1.6,3.6,2.9c1,1.2,1.8,2.7,2.3,4.5s0.8,3.7,0.8,5.8
								c0,2.1-0.3,4.1-0.8,5.8s-1.3,3.2-2.3,4.5c-1,1.2-2.2,2.2-3.6,2.9c-1.4,0.7-3,1-4.7,1c-0.9,0-1.7-0.1-2.5-0.2
								c-0.7-0.1-1.4-0.3-2-0.5c-0.6-0.2-1.2-0.5-1.7-0.8c-0.5-0.3-1-0.7-1.5-1.1v12.9h-8.2V406.2z M529.8,419.8
								c0-2.6-0.5-4.7-1.4-6.1c-0.9-1.4-2.4-2.1-4.5-2.1c-1,0-1.9,0.2-2.7,0.5c-0.8,0.3-1.6,0.7-2.3,1.2v13.1
								c0.7,0.5,1.4,0.9,2.3,1.2c0.8,0.3,1.7,0.5,2.7,0.5c2.1,0,3.6-0.7,4.5-2.1C529.3,424.5,529.8,422.5,529.8,419.8z"/>
						</g>
					</g>
					<g>
						<path fill="#FFE56B" d="M479,396.4h13.3c2.3,0,4.4,0.3,6.2,0.8c1.8,0.5,3.3,1.3,4.5,2.3c1.2,1,2.1,2.2,2.8,3.6
							c0.6,1.4,0.9,3,0.9,4.7c0,1.1-0.2,2.1-0.5,3c-0.3,0.9-0.7,1.8-1.2,2.7c-0.5,0.8-1.1,1.6-1.8,2.3c-0.7,0.7-1.4,1.3-2.2,1.9
							l7.8,15.8h-8.5l-6.8-14h-6.3v14H479V396.4z M487.1,402.3v11.2h9.1c0.3-0.3,0.5-0.6,0.8-1c0.3-0.4,0.5-0.8,0.7-1.2
							c0.2-0.5,0.4-1,0.5-1.5c0.1-0.6,0.2-1.2,0.2-1.9c0-2-0.5-3.4-1.6-4.2c-1-0.9-2.6-1.3-4.7-1.3H487.1z"/>
						<path fill="#FFE56B" d="M508.8,406.2h7.2l0.5,2.4c0.5-0.5,1-0.9,1.6-1.2s1.1-0.7,1.8-0.9c0.7-0.2,1.4-0.4,2.2-0.6
							c0.8-0.1,1.7-0.2,2.7-0.2c1.7,0,3.3,0.3,4.7,1c1.4,0.7,2.6,1.6,3.6,2.9c1,1.2,1.8,2.7,2.3,4.5c0.5,1.7,0.8,3.7,0.8,5.8
							c0,2.1-0.3,4.1-0.8,5.8c-0.5,1.7-1.3,3.2-2.3,4.5c-1,1.2-2.2,2.2-3.6,2.9c-1.4,0.7-3,1-4.7,1c-0.9,0-1.7-0.1-2.5-0.2
							c-0.7-0.1-1.4-0.3-2-0.5c-0.6-0.2-1.2-0.5-1.7-0.8c-0.5-0.3-1-0.7-1.5-1.1v12.9h-8.2V406.2z M527.8,419.8
							c0-2.6-0.5-4.7-1.4-6.1c-0.9-1.4-2.4-2.1-4.5-2.1c-1,0-1.9,0.2-2.7,0.5c-0.8,0.3-1.6,0.7-2.3,1.2v13.1
							c0.7,0.5,1.4,0.9,2.3,1.2c0.8,0.3,1.7,0.5,2.7,0.5c2.1,0,3.6-0.7,4.5-2.1C527.3,424.5,527.8,422.5,527.8,419.8z"/>
					</g>
					<g>
						<g>
							<path fill="#FED324" d="M476.3,396.4h13.3c2.3,0,4.4,0.3,6.2,0.8c1.8,0.5,3.3,1.3,4.5,2.3c1.2,1,2.1,2.2,2.8,3.6
								c0.6,1.4,0.9,3,0.9,4.7c0,1.1-0.2,2.1-0.5,3c-0.3,0.9-0.7,1.8-1.2,2.7c-0.5,0.8-1.1,1.6-1.8,2.3c-0.7,0.7-1.4,1.3-2.2,1.9
								l7.8,15.8h-8.5l-6.8-14h-6.3v14h-8.1V396.4z M484.4,402.3v11.2h9.1c0.3-0.3,0.5-0.6,0.8-1c0.3-0.4,0.5-0.8,0.7-1.2
								c0.2-0.5,0.4-1,0.5-1.5c0.1-0.6,0.2-1.2,0.2-1.9c0-2-0.5-3.4-1.6-4.2c-1-0.9-2.6-1.3-4.7-1.3H484.4z"/>
							<path fill="#FED324" d="M506.1,406.2h7.2l0.5,2.4c0.5-0.5,1-0.9,1.6-1.2c0.5-0.4,1.1-0.7,1.8-0.9c0.7-0.2,1.4-0.4,2.2-0.6
								c0.8-0.1,1.7-0.2,2.7-0.2c1.7,0,3.3,0.3,4.7,1c1.4,0.7,2.6,1.6,3.6,2.9c1,1.2,1.8,2.7,2.3,4.5c0.5,1.7,0.8,3.7,0.8,5.8
								c0,2.1-0.3,4.1-0.8,5.8c-0.5,1.7-1.3,3.2-2.3,4.5c-1,1.2-2.2,2.2-3.6,2.9c-1.4,0.7-3,1-4.7,1c-0.9,0-1.7-0.1-2.5-0.2
								c-0.7-0.1-1.4-0.3-2-0.5c-0.6-0.2-1.2-0.5-1.7-0.8c-0.5-0.3-1-0.7-1.5-1.1v12.9h-8.2V406.2z M525.1,419.8
								c0-2.6-0.5-4.7-1.4-6.1c-0.9-1.4-2.4-2.1-4.5-2.1c-1,0-1.9,0.2-2.7,0.5c-0.8,0.3-1.6,0.7-2.3,1.2v13.1
								c0.7,0.5,1.4,0.9,2.3,1.2c0.8,0.3,1.7,0.5,2.7,0.5c2.1,0,3.6-0.7,4.5-2.1C524.6,424.5,525.1,422.5,525.1,419.8z"/>
						</g>
					</g>
				</g>
			</g>
		</g>
		<g>
			<ellipse fill="#2C8658" cx="136.1" cy="478.2" rx="68.7" ry="7.6"/>
			<g>
				<circle fill="#FFE56B" cx="131.2" cy="420.3" r="60.3"/>
				<circle fill="#FED324" cx="122" cy="419.9" r="60.3"/>
				<circle fill="#D1A42A" cx="122" cy="419.9" r="44.1"/>
				<path fill="#B79123" d="M81.2,419.9c0-23.8,18.9-43.2,42.4-44c-0.5,0-1.1,0-1.6,0c-24.3,0-44.1,19.7-44.1,44.1
					c0,24.3,19.7,44.1,44.1,44.1c0.5,0,1.1,0,1.6,0C100.1,463,81.2,443.7,81.2,419.9z"/>
				<g>
					<g>
						<path fill="#FFE56B" d="M77,440.8l-4.9,4.9c-0.7,0.7-0.8,1.7-0.4,2.5c2.3,4,5,7.7,8.1,11.1c0.8,0.9,2.2,0.9,3.1,0.1l4.7-4.7
							c0.8-0.8,0.8-2.1,0.1-2.9c-2.9-3.1-5.3-6.6-7.3-10.4C79.7,440,78,439.7,77,440.8z"/>
						<path fill="#FFE56B" d="M156.8,385.4l4.7-4.7c0.9-0.9,0.8-2.2-0.1-3.1c-3.3-3.1-7.1-5.8-11.1-8.1c-0.8-0.5-1.9-0.3-2.5,0.4
							l-4.9,4.9c-1,1-0.7,2.7,0.5,3.4c3.8,2,7.3,4.4,10.4,7.3C154.7,386.2,156,386.2,156.8,385.4z"/>
						<path fill="#FFE56B" d="M166.7,387.2l-4.8,4.8c-0.7,0.7-0.8,1.8-0.3,2.7c0.8,1.2,1.5,2.5,2.2,3.8c0.7,1.3,2.4,1.6,3.4,0.5
							l4.9-4.9c0.7-0.7,0.8-1.7,0.4-2.5c-0.8-1.4-1.6-2.7-2.5-4C169.2,386.4,167.6,386.3,166.7,387.2z"/>
						<path fill="#FFE56B" d="M100.6,461.6c-1.3-0.7-2.5-1.4-3.8-2.2c-0.8-0.5-2-0.4-2.7,0.3l-4.8,4.8c-0.9,0.9-0.8,2.5,0.3,3.3
							c1.3,0.9,2.6,1.7,4,2.5c0.8,0.5,1.8,0.3,2.5-0.4l4.9-4.9C102.2,463.9,101.9,462.2,100.6,461.6z"/>
					</g>
				</g>
				<path fill="#B79123" d="M106.7,419.8c0-2.8,0.4-5.5,1.1-7.9c0.8-2.4,1.8-4.5,3.3-6.4c1.4-1.8,3.2-3.4,5.2-4.6
					c2-1.2,4.4-2.1,6.9-2.7v-7.1h9.1v6.7c1.9,0.1,3.5,0.4,4.9,0.8c1.4,0.4,2.7,0.8,3.7,1.4l-2.3,8.3c-1-0.4-2.1-0.7-3.3-1
					c-1.2-0.3-2.7-0.4-4.4-0.4c-1.7,0-3.2,0.2-4.6,0.7c-1.4,0.5-2.6,1.3-3.5,2.3c-1,1-1.7,2.4-2.3,4c-0.5,1.6-0.8,3.5-0.8,5.8
					c0,2.2,0.3,4.2,0.8,5.8c0.5,1.6,1.3,3,2.3,4c1,1.1,2.2,1.9,3.5,2.4c1.4,0.5,2.9,0.8,4.6,0.8c1,0,2,0,2.8-0.1
					c0.8-0.1,1.6-0.2,2.3-0.3c0.7-0.1,1.3-0.3,2-0.5c0.6-0.2,1.2-0.4,1.8-0.6l1.7,8.1c-1.1,0.7-2.4,1.2-3.9,1.7
					c-1.5,0.5-3.2,0.8-5.3,1v7.5h-9.1v-8c-2.6-0.5-4.9-1.4-6.9-2.7c-2-1.3-3.8-2.8-5.2-4.7c-1.4-1.9-2.5-4-3.3-6.4
					C107.1,425.2,106.7,422.6,106.7,419.8z"/>
				<path fill="#FFE56B" d="M137.7,431.2c-1.6,0-3.8,0-3.8,0c-0.6,0.2-1.2,0.4-1.8,0.6c-0.6,0.2-1.3,0.3-2,0.5
					c-0.7,0.1-1.5,0.2-2.3,0.3c-0.2,0-0.3,0-0.5,0c-1.1-0.1-2.2-0.3-3.1-0.7c-1.4-0.5-2.6-1.3-3.5-2.4c-1-1.1-1.7-2.4-2.3-4
					c-0.5-1.6-0.8-3.5-0.8-5.8c0-2.2,0.3-4.2,0.8-5.8c0.5-1.6,1.3-2.9,2.3-4c1-1,2.2-1.8,3.5-2.3c0.9-0.3,2-0.6,3.1-0.7
					c0.8,0.1,1.6,0.2,2.2,0.3c1.2,0.3,2.3,0.6,3.3,1c0,0,2.3,0,3.8,0l2.3-8.3c-1.1-0.5-2.3-1-3.7-1.4c-1.4-0.4-3.1-0.6-4.9-0.8v-6.7
					h-3.8h-5.3h-3.8v7.1c-2.6,0.5-4.9,1.4-6.9,2.7c-2,1.2-3.8,2.8-5.2,4.6c-1.4,1.8-2.5,4-3.3,6.4c-0.8,2.4-1.1,5-1.1,7.9
					c0,2.8,0.4,5.5,1.1,7.9c0.8,2.4,1.8,4.5,3.3,6.4c1.4,1.9,3.2,3.4,5.2,4.7c2,1.3,4.4,2.2,6.9,2.7v8h3.8h5.3h3.8v-7.5
					c2-0.2,3.8-0.5,5.3-1c1.5-0.5,2.8-1,3.9-1.7L137.7,431.2z"/>
				<path fill="#FED324" d="M100.8,419.8c0-2.8,0.4-5.5,1.1-7.9c0.8-2.4,1.8-4.5,3.3-6.4c1.4-1.8,3.2-3.4,5.2-4.6
					c2-1.2,4.4-2.1,6.9-2.7v-7.1h9.1v6.7c1.9,0.1,3.5,0.4,4.9,0.8c1.4,0.4,2.7,0.8,3.7,1.4l-2.3,8.3c-1-0.4-2.1-0.7-3.3-1
					c-1.2-0.3-2.7-0.4-4.4-0.4c-1.7,0-3.2,0.2-4.6,0.7c-1.4,0.5-2.6,1.3-3.5,2.3c-1,1-1.7,2.4-2.3,4c-0.5,1.6-0.8,3.5-0.8,5.8
					c0,2.2,0.3,4.2,0.8,5.8c0.5,1.6,1.3,3,2.3,4c1,1.1,2.2,1.9,3.5,2.4c1.4,0.5,2.9,0.8,4.6,0.8c1,0,2,0,2.8-0.1
					c0.8-0.1,1.6-0.2,2.3-0.3c0.7-0.1,1.3-0.3,2-0.5c0.6-0.2,1.2-0.4,1.8-0.6l1.7,8.1c-1.1,0.7-2.4,1.2-3.9,1.7
					c-1.5,0.5-3.2,0.8-5.3,1v7.5h-9.1v-8c-2.6-0.5-4.9-1.4-6.9-2.7c-2-1.3-3.8-2.8-5.2-4.7c-1.4-1.9-2.5-4-3.3-6.4
					C101.2,425.2,100.8,422.6,100.8,419.8z"/>
			</g>
		</g>
		<g>
			<ellipse fill="#2C8658" cx="327.9" cy="478.2" rx="68.7" ry="7.6"/>
			<g>
				<circle fill="#FFE56B" cx="323" cy="420.3" r="60.3"/>
				<circle fill="#FED324" cx="313.8" cy="419.9" r="60.3"/>
				<circle fill="#D1A42A" cx="313.8" cy="419.9" r="44.1"/>
				<path fill="#B79123" d="M273,419.9c0-23.8,18.9-43.2,42.4-44c-0.5,0-1.1,0-1.6,0c-24.3,0-44.1,19.7-44.1,44.1
					c0,24.3,19.7,44.1,44.1,44.1c0.5,0,1.1,0,1.6,0C291.8,463,273,443.7,273,419.9z"/>
				<g>
					<g>
						<path fill="#FFE56B" d="M268.7,440.8l-4.9,4.9c-0.7,0.7-0.8,1.7-0.4,2.5c2.3,4,5,7.7,8.1,11.1c0.8,0.9,2.2,0.9,3.1,0.1
							l4.7-4.7c0.8-0.8,0.8-2.1,0.1-2.9c-2.9-3.1-5.3-6.6-7.3-10.4C271.4,440,269.7,439.7,268.7,440.8z"/>
						<path fill="#FFE56B" d="M348.5,385.4l4.7-4.7c0.9-0.9,0.8-2.2-0.1-3.1c-3.3-3.1-7.1-5.8-11.1-8.1c-0.8-0.5-1.9-0.3-2.5,0.4
							l-4.9,4.9c-1,1-0.7,2.7,0.5,3.4c3.8,2,7.3,4.4,10.4,7.3C346.4,386.2,347.7,386.2,348.5,385.4z"/>
						<path fill="#FFE56B" d="M358.4,387.2l-4.8,4.8c-0.7,0.7-0.8,1.8-0.3,2.7c0.8,1.2,1.5,2.5,2.2,3.8c0.7,1.3,2.4,1.6,3.4,0.5
							l4.9-4.9c0.7-0.7,0.8-1.7,0.4-2.5c-0.8-1.4-1.6-2.7-2.5-4C360.9,386.4,359.4,386.3,358.4,387.2z"/>
						<path fill="#FFE56B" d="M292.4,461.6c-1.3-0.7-2.5-1.4-3.8-2.2c-0.8-0.5-2-0.4-2.7,0.3l-4.8,4.8c-0.9,0.9-0.8,2.5,0.3,3.3
							c1.3,0.9,2.6,1.7,4,2.5c0.8,0.5,1.8,0.3,2.5-0.4l4.9-4.9C293.9,463.9,293.6,462.2,292.4,461.6z"/>
					</g>
				</g>
				<g>
					<path fill="#B79123" d="M294.7,412.3h7.9c0.6-3,1.5-5.7,2.7-8.1c1.2-2.4,2.8-4.4,4.6-6.1c1.8-1.7,4-3,6.4-3.9
						c2.4-0.9,5-1.4,7.9-1.4c2.7,0,5,0.2,6.8,0.6c1.8,0.4,3.4,0.9,4.8,1.5l-2,7.9c-1.2-0.4-2.6-0.8-4.2-1.1
						c-1.5-0.3-3.2-0.4-4.9-0.4c-2.6,0-4.7,0.9-6.5,2.6c-1.8,1.8-3,4.5-3.7,8.3h18.6v5.7H314c0,0.4,0,0.7,0,1.1c0,0.4,0,0.7,0,1.1
						c0,1.3,0,2.4,0.1,3.5h19.1v5.7h-18.3c0.8,3.4,2.1,5.8,3.8,7.4c1.7,1.6,3.8,2.3,6.2,2.3c2.1,0,4-0.2,5.8-0.6
						c1.8-0.4,3.3-0.9,4.6-1.4l1.8,8c-1.5,0.8-3.3,1.4-5.5,1.9c-2.2,0.5-4.9,0.8-8.1,0.8c-2.6,0-5.1-0.4-7.3-1.3
						c-2.2-0.8-4.2-2.1-6-3.6c-1.8-1.6-3.2-3.5-4.5-5.7c-1.2-2.2-2.2-4.8-2.8-7.6h-8.2v-5.7h7.3c-0.1-1.1-0.1-2.3-0.1-3.5
						c0-0.4,0-0.7,0-1.1c0-0.4,0-0.7,0-1.1h-7.3V412.3z"/>
					<path fill="#FFE56B" d="M333.2,437.1c-2.7,0-4.5,0-4.5,0c-1.3,0.5-2.9,1-4.6,1.4c-1,0.2-2,0.4-3,0.5c-1.7-0.3-3.2-1-4.5-2.2
						c-1.7-1.6-3-4-3.8-7.4h13.8h4.5v-5.7h-4.5h-14.6c-0.1-1.1-0.1-2.3-0.1-3.5c0-0.4,0-0.7,0-1.1c0-0.4,0-0.7,0-1.1h14.7h4.5v-5.7
						h-4.5h-14.1c0.7-3.8,1.9-6.5,3.7-8.3c1.4-1.4,3-2.2,4.8-2.5c0.7,0.1,1.4,0.1,2.1,0.3c1.5,0.3,2.9,0.6,4.2,1.1c0,0,2.6,0,4.5,0
						l2-7.9c-1.3-0.5-2.9-1-4.8-1.5c-1.8-0.4-4.1-0.6-6.8-0.6c-0.7,0-3.6,0-4.5,0c-2.9,0-5.5,0.5-7.9,1.4c-2.4,0.9-4.5,2.2-6.4,3.9
						c-1.8,1.7-3.4,3.7-4.6,6.1c-1.2,2.4-2.2,5.1-2.7,8.1h-3.4h-4.5v5.7h4.5h2.7c0,0.4,0,0.7,0,1.1c0,0.4,0,0.7,0,1.1
						c0,1.2,0,2.4,0.1,3.5h-2.8h-4.5v5.7h4.5h3.7c0.6,2.8,1.6,5.4,2.8,7.6c1.2,2.2,2.7,4.2,4.5,5.7c1.8,1.6,3.7,2.8,6,3.6
						c2.2,0.8,4.7,1.3,7.3,1.3c0.9,0,3.9,0,4.5,0c3.2,0,5.8-0.3,8.1-0.8c2.2-0.5,4.1-1.1,5.5-1.9L333.2,437.1z"/>
					<path fill="#FED324" d="M288.1,412.3h7.9c0.6-3,1.5-5.7,2.7-8.1c1.2-2.4,2.8-4.4,4.6-6.1c1.8-1.7,4-3,6.4-3.9
						c2.4-0.9,5-1.4,7.9-1.4c2.7,0,5,0.2,6.8,0.6c1.8,0.4,3.4,0.9,4.8,1.5l-2,7.9c-1.2-0.4-2.6-0.8-4.2-1.1
						c-1.5-0.3-3.2-0.4-4.9-0.4c-2.6,0-4.7,0.9-6.5,2.6c-1.8,1.8-3,4.5-3.7,8.3h18.6v5.7h-19.2c0,0.4,0,0.7,0,1.1c0,0.4,0,0.7,0,1.1
						c0,1.3,0,2.4,0.1,3.5h19.1v5.7h-18.3c0.8,3.4,2.1,5.8,3.8,7.4c1.7,1.6,3.8,2.3,6.2,2.3c2.1,0,4-0.2,5.8-0.6
						c1.8-0.4,3.3-0.9,4.6-1.4l1.8,8c-1.5,0.8-3.3,1.4-5.5,1.9c-2.2,0.5-4.9,0.8-8.1,0.8c-2.6,0-5.1-0.4-7.3-1.3
						c-2.2-0.8-4.2-2.1-6-3.6c-1.8-1.6-3.2-3.5-4.5-5.7c-1.2-2.2-2.2-4.8-2.8-7.6h-8.2v-5.7h7.3c-0.1-1.1-0.1-2.3-0.1-3.5
						c0-0.4,0-0.7,0-1.1c0-0.4,0-0.7,0-1.1h-7.3V412.3z"/>
				</g>
			</g>
		</g>
		<g>
			<ellipse fill="#2C8658" cx="711.4" cy="478.2" rx="68.7" ry="7.6"/>
			<g>
				<circle fill="#FFE56B" cx="706.5" cy="420.3" r="60.3"/>
				<circle fill="#FED324" cx="697.3" cy="419.9" r="60.3"/>
				<circle fill="#D1A42A" cx="697.3" cy="419.9" r="44.1"/>
				<path fill="#B79123" d="M656.5,419.9c0-23.8,18.9-43.2,42.4-44c-0.5,0-1.1,0-1.6,0c-24.3,0-44.1,19.7-44.1,44.1
					c0,24.3,19.7,44.1,44.1,44.1c0.5,0,1.1,0,1.6,0C675.3,463,656.5,443.7,656.5,419.9z"/>
				<g>
					<g>
						<path fill="#FFE56B" d="M652.2,440.8l-4.9,4.9c-0.7,0.7-0.8,1.7-0.4,2.5c2.3,4,5,7.7,8.1,11.1c0.8,0.9,2.2,0.9,3.1,0.1
							l4.7-4.7c0.8-0.8,0.8-2.1,0.1-2.9c-2.9-3.1-5.3-6.6-7.3-10.4C654.9,440,653.2,439.7,652.2,440.8z"/>
						<path fill="#FFE56B" d="M732,385.4l4.7-4.7c0.9-0.9,0.8-2.2-0.1-3.1c-3.3-3.1-7.1-5.8-11.1-8.1c-0.8-0.5-1.9-0.3-2.5,0.4
							l-4.9,4.9c-1,1-0.7,2.7,0.5,3.4c3.8,2,7.3,4.4,10.4,7.3C730,386.2,731.2,386.2,732,385.4z"/>
						<path fill="#FFE56B" d="M742,387.2l-4.8,4.8c-0.7,0.7-0.8,1.8-0.3,2.7c0.8,1.2,1.5,2.5,2.2,3.8c0.7,1.3,2.4,1.6,3.4,0.5
							l4.9-4.9c0.7-0.7,0.8-1.7,0.4-2.5c-0.8-1.4-1.6-2.7-2.5-4C744.5,386.4,742.9,386.3,742,387.2z"/>
						<path fill="#FFE56B" d="M675.9,461.6c-1.3-0.7-2.5-1.4-3.8-2.2c-0.8-0.5-2-0.4-2.7,0.3l-4.8,4.8c-0.9,0.9-0.8,2.5,0.3,3.3
							c1.3,0.9,2.6,1.7,4,2.5c0.8,0.5,1.8,0.3,2.5-0.4l4.9-4.9C677.5,463.9,677.2,462.2,675.9,461.6z"/>
					</g>
				</g>
				<g>
					<path fill="#B79123" d="M723.4,394.3h-29h-19v8.5v0h20.1c2.3,0.2,4.1,0.8,5.3,1.8c0.6,0.5,1.1,1.2,1.5,2h-26.8v8.5h26.8
						c-0.1,0.2-0.1,0.3-0.2,0.5c-0.3,0.6-0.6,1.2-1,1.7c-0.4,0.5-0.7,1-1.1,1.4h-5h-19.5v8.4H696l9.7,19.9h12.1l-11-22.4
						c1.1-0.8,2.1-1.6,3.1-2.6c1-1,1.8-2.1,2.6-3.2c0.7-1.1,1.3-2.3,1.7-3.6h9.2v-8.5h-9c-0.2-0.9-0.5-1.8-0.9-2.7
						c-0.2-0.4-0.4-0.7-0.5-1.1h10.4V394.3z"/>
					<path fill="#FFE56B" d="M721.3,394.3h-29h-19v8.5v0h20.1c2.3,0.2,4.1,0.8,5.3,1.8c0.6,0.5,1.1,1.2,1.5,2h-26.8v8.5h26.8
						c-0.1,0.2-0.1,0.3-0.2,0.5c-0.3,0.6-0.6,1.2-1,1.7c-0.4,0.5-0.7,1-1.1,1.4h-5h-19.5v8.4h20.5l9.7,19.9h12.1l-11-22.4
						c1.1-0.8,2.1-1.6,3.1-2.6c1-1,1.8-2.1,2.6-3.2c0.7-1.1,1.3-2.3,1.7-3.6h9.2v-8.5h-9c-0.2-0.9-0.5-1.8-0.9-2.7
						c-0.2-0.4-0.4-0.7-0.5-1.1h10.4V394.3z"/>
					<path fill="#FED324" d="M717.6,394.3h-29h-19v8.5v0h20.1c2.3,0.2,4.1,0.8,5.3,1.8c0.6,0.5,1.1,1.2,1.5,2h-26.8v8.5h26.8
						c-0.1,0.2-0.1,0.3-0.2,0.5c-0.3,0.6-0.6,1.2-1,1.7c-0.4,0.5-0.7,1-1.1,1.4h-5h-19.5v8.4h20.5l9.7,19.9H712l-11-22.4
						c1.1-0.8,2.1-1.6,3.1-2.6c1-1,1.8-2.1,2.6-3.2c0.7-1.1,1.3-2.3,1.7-3.6h9.2v-8.5h-9c-0.2-0.9-0.5-1.8-0.9-2.7
						c-0.2-0.4-0.4-0.7-0.5-1.1h10.4V394.3z"/>
				</g>
			</g>
		</g>
	</g>
</g>
</svg>
